#Comment line ignore any data following # character 
#Hierarchical Translation and Rotation (.htr) file 
[Header]	
#Header keywords are followed by a single value 
FileType HTR		#Single word string
DataType HTRS		#Translation followed by rotation and scale data
FileVersion 1		#integer
NumSegments 84		#integer
NumFrames 2		#integer
DataFrameRate 30		#integer, data frame rate in this file
EulerRotationOrder ZYX
CalibrationUnits mm
RotationUnits Degrees
GlobalAxisofGravity Y
BoneLengthAxis Y
ScaleFactor 1.00
[SegmentNames&Hierarchy]
#CHILD	PARENT
MASTER GLOBAL
root MASTER
chest root
L_mid_tent01 root
R_mid_tent01 root
spine01 root
Bip01_Neck chest
L_humerus chest
R_humerus chest
weapon_bone chest
Bip01_Head Bip01_Neck
eye_left_bone Bip01_Head
eye_right_bone Bip01_Head
L_forearm L_humerus
L_front_hand L_forearm
L_weapon_bone L_forearm
L_front_hand01_01 L_front_hand
L_front_hand02_01 L_front_hand
L_front_hand03_01 L_front_hand
L_front_hand01_02 L_front_hand01_01
L_front_hand02_02 L_front_hand02_01
L_front_hand03_02 L_front_hand03_01
R_forearm R_humerus
R_front_hand R_forearm
R_weapon_bone R_forearm
R_front_hand01_01 R_front_hand
R_front_hand02_01 R_front_hand
R_front_hand03_01 R_front_hand
R_front_hand01_02 R_front_hand01_01
R_front_hand02_02 R_front_hand02_01
R_front_hand03_02 R_front_hand03_01
null_rope01_connect L_mid_tent01
Rope1_Seg01 null_rope01_connect
Rope1_Seg02 Rope1_Seg01
Rope1_Seg03 Rope1_Seg02
Rope1_Seg04 Rope1_Seg03
Rope1_Seg05 Rope1_Seg04
Rope1_Seg06 Rope1_Seg05
Rope1_Seg07 Rope1_Seg06
Rope1_Seg09 Rope1_Seg07
L_mid_hand01 Rope1_Seg09
L_mid_hand02 Rope1_Seg09
L_mid_hand03 Rope1_Seg09
null_rope02_connect R_mid_tent01
Rope2_Seg01 null_rope02_connect
Rope2_Seg02 Rope2_Seg01
Rope2_Seg03 Rope2_Seg02
Rope2_Seg04 Rope2_Seg03
Rope2_Seg05 Rope2_Seg04
Rope2_Seg06 Rope2_Seg05
Rope2_Seg07 Rope2_Seg06
Rope2_Seg09 Rope2_Seg07
R_mid_hand01 Rope2_Seg09
R_mid_hand02 Rope2_Seg09
R_mid_hand03 Rope2_Seg09
spine02 spine01
spine03 spine02
pelvis spine03
null_rope03_connect pelvis
null_rope04_connect pelvis
Rope3_Seg01 null_rope03_connect
Rope3_Seg02 Rope3_Seg01
Rope3_Seg03 Rope3_Seg02
Rope3_Seg04 Rope3_Seg03
Rope3_Seg05 Rope3_Seg04
Rope3_Seg06 Rope3_Seg05
Rope3_Seg07 Rope3_Seg06
Rope3_Seg08 Rope3_Seg07
Rope3_Seg09 Rope3_Seg08
R_rear_hand01 Rope3_Seg09
R_rear_hand02 Rope3_Seg09
R_rear_hand03 Rope3_Seg09
Rope4_Seg01 null_rope04_connect
Rope4_Seg02 Rope4_Seg01
Rope4_Seg03 Rope4_Seg02
Rope4_Seg04 Rope4_Seg03
Rope4_Seg05 Rope4_Seg04
Rope4_Seg06 Rope4_Seg05
Rope4_Seg07 Rope4_Seg06
Rope4_Seg08 Rope4_Seg07
Rope4_Seg09 Rope4_Seg08
L_rear_hand01 Rope4_Seg09
L_rear_hand02 Rope4_Seg09
L_rear_hand03 Rope4_Seg09
[BasePosition]
#SegmentName Tx, Ty, Tz, Rx, Ry, Rz, BoneLength
MASTER 0.000000 0.000000 0.000000 -90.000000 0.000000 0.000000 10.000000 
root 0.000000 0.000000 0.000000 0.000000 0.000000 0.000000 10.000000 
chest 0.000000 0.000000 0.000000 0.000000 0.000000 0.000000 10.000000 
L_mid_tent01 0.000000 0.000000 0.000000 0.000000 0.000000 0.000000 10.000000 
R_mid_tent01 0.000000 0.000000 0.000000 0.000000 0.000000 0.000000 10.000000 
spine01 0.000000 0.000000 0.000000 0.000000 0.000000 0.000000 10.000000 
Bip01_Neck 0.000000 0.000000 0.000000 0.000000 0.000000 0.000000 10.000000 
L_humerus 0.000000 0.000000 0.000000 0.000000 0.000000 0.000000 10.000000 
R_humerus 0.000000 0.000000 0.000000 0.000000 0.000000 0.000000 10.000000 
weapon_bone 0.000000 0.000000 0.000000 0.000000 0.000000 0.000000 10.000000 
Bip01_Head 0.000000 0.000000 0.000000 0.000000 0.000000 0.000000 10.000000 
eye_left_bone 0.000000 0.000000 0.000000 0.000000 0.000000 0.000000 10.000000 
eye_right_bone 0.000000 0.000000 0.000000 0.000000 0.000000 0.000000 10.000000 
L_forearm 0.000000 0.000000 0.000000 0.000000 0.000000 0.000000 10.000000 
L_front_hand 0.000000 0.000000 0.000000 0.000000 0.000000 0.000000 10.000000 
L_weapon_bone 0.000000 0.000000 0.000000 0.000000 0.000000 0.000000 10.000000 
L_front_hand01_01 0.000000 0.000000 0.000000 0.000000 0.000000 0.000000 10.000000 
L_front_hand02_01 0.000000 0.000000 0.000000 0.000000 0.000000 0.000000 10.000000 
L_front_hand03_01 0.000000 0.000000 0.000000 0.000000 0.000000 0.000000 10.000000 
L_front_hand01_02 0.000000 0.000000 0.000000 0.000000 0.000000 0.000000 10.000000 
L_front_hand02_02 0.000000 0.000000 0.000000 0.000000 0.000000 0.000000 10.000000 
L_front_hand03_02 0.000000 0.000000 0.000000 0.000000 0.000000 0.000000 10.000000 
R_forearm 0.000000 0.000000 0.000000 0.000000 0.000000 0.000000 10.000000 
R_front_hand 0.000000 0.000000 0.000000 0.000000 0.000000 0.000000 10.000000 
R_weapon_bone 0.000000 0.000000 0.000000 0.000000 0.000000 0.000000 10.000000 
R_front_hand01_01 0.000000 0.000000 0.000000 0.000000 0.000000 0.000000 10.000000 
R_front_hand02_01 0.000000 0.000000 0.000000 0.000000 0.000000 0.000000 10.000000 
R_front_hand03_01 0.000000 0.000000 0.000000 0.000000 0.000000 0.000000 10.000000 
R_front_hand01_02 0.000000 0.000000 0.000000 0.000000 0.000000 0.000000 10.000000 
R_front_hand02_02 0.000000 0.000000 0.000000 0.000000 0.000000 0.000000 10.000000 
R_front_hand03_02 0.000000 0.000000 0.000000 0.000000 0.000000 0.000000 10.000000 
null_rope01_connect 0.000000 0.000000 0.000000 0.000000 0.000000 0.000000 10.000000 
Rope1_Seg01 0.000000 0.000000 0.000000 0.000000 0.000000 0.000000 10.000000 
Rope1_Seg02 0.000000 0.000000 0.000000 0.000000 0.000000 0.000000 10.000000 
Rope1_Seg03 0.000000 0.000000 0.000000 0.000000 0.000000 0.000000 10.000000 
Rope1_Seg04 0.000000 0.000000 0.000000 0.000000 0.000000 0.000000 10.000000 
Rope1_Seg05 0.000000 0.000000 0.000000 0.000000 0.000000 0.000000 10.000000 
Rope1_Seg06 0.000000 0.000000 0.000000 0.000000 0.000000 0.000000 10.000000 
Rope1_Seg07 0.000000 0.000000 0.000000 0.000000 0.000000 0.000000 10.000000 
Rope1_Seg09 0.000000 0.000000 0.000000 0.000000 0.000000 0.000000 10.000000 
L_mid_hand01 0.000000 0.000000 0.000000 0.000000 0.000000 0.000000 10.000000 
L_mid_hand02 0.000000 0.000000 0.000000 0.000000 0.000000 0.000000 10.000000 
L_mid_hand03 0.000000 0.000000 0.000000 0.000000 0.000000 0.000000 10.000000 
null_rope02_connect 0.000000 0.000000 0.000000 0.000000 0.000000 0.000000 10.000000 
Rope2_Seg01 0.000000 0.000000 0.000000 0.000000 0.000000 0.000000 10.000000 
Rope2_Seg02 0.000000 0.000000 0.000000 0.000000 0.000000 0.000000 10.000000 
Rope2_Seg03 0.000000 0.000000 0.000000 0.000000 0.000000 0.000000 10.000000 
Rope2_Seg04 0.000000 0.000000 0.000000 0.000000 0.000000 0.000000 10.000000 
Rope2_Seg05 0.000000 0.000000 0.000000 0.000000 0.000000 0.000000 10.000000 
Rope2_Seg06 0.000000 0.000000 0.000000 0.000000 0.000000 0.000000 10.000000 
Rope2_Seg07 0.000000 0.000000 0.000000 0.000000 0.000000 0.000000 10.000000 
Rope2_Seg09 0.000000 0.000000 0.000000 0.000000 0.000000 0.000000 10.000000 
R_mid_hand01 0.000000 0.000000 0.000000 0.000000 0.000000 0.000000 10.000000 
R_mid_hand02 0.000000 0.000000 0.000000 0.000000 0.000000 0.000000 10.000000 
R_mid_hand03 0.000000 0.000000 0.000000 0.000000 0.000000 0.000000 10.000000 
spine02 0.000000 0.000000 0.000000 0.000000 0.000000 0.000000 10.000000 
spine03 0.000000 0.000000 0.000000 0.000000 0.000000 0.000000 10.000000 
pelvis 0.000000 0.000000 0.000000 0.000000 0.000000 0.000000 10.000000 
null_rope03_connect 0.000000 0.000000 0.000000 0.000000 0.000000 0.000000 10.000000 
null_rope04_connect 0.000000 0.000000 0.000000 0.000000 0.000000 0.000000 10.000000 
Rope3_Seg01 0.000000 0.000000 0.000000 0.000000 0.000000 0.000000 10.000000 
Rope3_Seg02 0.000000 0.000000 0.000000 0.000000 0.000000 0.000000 10.000000 
Rope3_Seg03 0.000000 0.000000 0.000000 0.000000 0.000000 0.000000 10.000000 
Rope3_Seg04 0.000000 0.000000 0.000000 0.000000 0.000000 0.000000 10.000000 
Rope3_Seg05 0.000000 0.000000 0.000000 0.000000 0.000000 0.000000 10.000000 
Rope3_Seg06 0.000000 0.000000 0.000000 0.000000 0.000000 0.000000 10.000000 
Rope3_Seg07 0.000000 0.000000 0.000000 0.000000 0.000000 0.000000 10.000000 
Rope3_Seg08 0.000000 0.000000 0.000000 0.000000 0.000000 0.000000 10.000000 
Rope3_Seg09 0.000000 0.000000 0.000000 0.000000 0.000000 0.000000 10.000000 
R_rear_hand01 0.000000 0.000000 0.000000 0.000000 0.000000 0.000000 10.000000 
R_rear_hand02 0.000000 0.000000 0.000000 0.000000 0.000000 0.000000 10.000000 
R_rear_hand03 0.000000 0.000000 0.000000 0.000000 0.000000 0.000000 10.000000 
Rope4_Seg01 0.000000 0.000000 0.000000 0.000000 0.000000 0.000000 10.000000 
Rope4_Seg02 0.000000 0.000000 0.000000 0.000000 0.000000 0.000000 10.000000 
Rope4_Seg03 0.000000 0.000000 0.000000 0.000000 0.000000 0.000000 10.000000 
Rope4_Seg04 0.000000 0.000000 0.000000 0.000000 0.000000 0.000000 10.000000 
Rope4_Seg05 0.000000 0.000000 0.000000 0.000000 0.000000 0.000000 10.000000 
Rope4_Seg06 0.000000 0.000000 0.000000 0.000000 0.000000 0.000000 10.000000 
Rope4_Seg07 0.000000 0.000000 0.000000 0.000000 0.000000 0.000000 10.000000 
Rope4_Seg08 0.000000 0.000000 0.000000 0.000000 0.000000 0.000000 10.000000 
Rope4_Seg09 0.000000 0.000000 0.000000 0.000000 0.000000 0.000000 10.000000 
L_rear_hand01 0.000000 0.000000 0.000000 0.000000 0.000000 0.000000 10.000000 
L_rear_hand02 0.000000 0.000000 0.000000 0.000000 0.000000 0.000000 10.000000 
L_rear_hand03 0.000000 0.000000 0.000000 0.000000 0.000000 0.000000 10.000000 
#Beginning of Data. Separated by tabs
#Fr	Tx	Ty	Tz	Rx	Ry	Rz	SF
[MASTER]
38 -0.000074 554.566467 0.000000 0.001660 0.001660 0.001660 554.566467
39 -0.000074 554.566467 0.000000 0.001660 0.001660 0.001660 554.566467
[root]
38 23.739347 306.005127 908.652222 -94.329430 -23.892601 -88.670845 959.088928
39 -9.581518 305.988037 901.237183 -94.524017 -23.872618 -88.330528 951.813538
[chest]
38 -84.512650 -34.090519 0.000000 13.131901 -6.846761 175.009232 91.129311
39 -84.512650 -34.090519 0.000000 12.240232 -6.009883 175.133652 91.129311
[L_mid_tent01]
38 27.688805 21.954491 -252.418930 13.789988 32.274441 83.718109 254.880341
39 27.696211 21.950258 -252.466476 13.758126 32.019714 83.662163 254.927872
[R_mid_tent01]
38 23.228794 24.509907 226.238495 155.525864 -17.253077 78.295128 228.744751
39 23.228794 24.509907 226.238495 155.480301 -17.547852 78.406403 228.744751
[spine01]
38 -0.361383 -0.195265 0.000000 0.001869 0.001420 15.534141 0.410763
39 -0.361383 -0.195265 0.000000 0.001869 0.001420 15.534141 0.410763
[Bip01_Neck]
38 165.484543 71.581718 0.000119 175.896118 1.177290 24.871183 180.302734
39 165.484543 71.581718 0.000119 175.896118 1.177290 24.871183 180.302734
[L_humerus]
38 -13.983130 -135.272980 -120.471481 174.234009 4.435148 -145.792892 181.680161
39 -13.983130 -135.272980 -120.471481 174.923752 3.086435 -148.874329 181.680161
[R_humerus]
38 -13.983309 -135.273102 125.287651 -157.901321 -13.327806 -123.337074 184.909012
39 -13.983309 -135.273102 125.287651 -157.920074 -12.831174 -123.526299 184.909012
[weapon_bone]
38 235.964890 -300.705902 0.000000 0.000000 -89.951546 -128.212341 382.234833
39 235.964890 -300.705902 0.000000 0.000000 -89.951546 -128.212341 382.234833
[Bip01_Head]
38 186.020020 185.149979 15.270423 41.750526 19.934481 -37.346870 262.901398
39 186.020020 185.149979 15.270423 41.750526 19.934481 -37.346870 262.901398
[eye_left_bone]
38 -24.626970 125.451866 -64.772606 0.000000 -90.000000 -99.840431 143.318359
39 -24.626970 125.451866 -64.772606 0.000000 -90.000000 -99.840431 143.318359
[eye_right_bone]
38 -24.626970 125.451866 64.327362 0.000000 -89.960434 80.159386 143.117676
39 -24.626970 125.451866 64.327362 0.000000 -89.960434 80.159386 143.117676
[L_forearm]
38 322.776093 0.000000 -0.000119 0.000214 -0.002337 -100.455833 322.776093
39 322.776093 0.000000 -0.000119 0.000212 -0.002338 -100.354919 322.776093
[L_front_hand]
38 241.149185 -0.042021 -3.300071 -179.618683 -2.238596 -1.118807 241.171753
39 241.149185 -0.042021 -3.300071 -179.627594 -2.239307 -0.915813 241.171753
[L_weapon_bone]
38 156.183838 0.000000 0.000000 0.000014 0.000007 0.000001 156.183838
39 156.183838 0.000000 0.000000 0.000014 0.000007 0.000001 156.183838
[L_front_hand01_01]
38 86.095154 20.947098 -0.655860 -0.366594 -0.477154 75.385574 88.609184
39 86.095154 20.947098 -0.655860 -0.366594 -0.477154 75.385582 88.609184
[L_front_hand02_01]
38 86.935165 -11.437475 24.513514 154.403519 -59.888931 -61.371990 91.046425
39 86.935165 -11.437475 24.513514 154.403519 -59.888931 -61.371990 91.046425
[L_front_hand03_01]
38 86.637497 -14.123976 -20.424902 -153.913849 58.118122 -62.702866 90.126129
39 86.637497 -14.123976 -20.424902 -153.913849 58.118122 -62.702866 90.126129
[L_front_hand01_02]
38 71.020905 -0.000179 0.000030 0.000334 -0.002323 -106.379684 71.020905
39 71.020905 -0.000179 0.000030 0.000334 -0.002323 -106.379684 71.020905
[L_front_hand02_02]
38 71.020927 -0.000119 0.000060 0.000334 -0.002323 -106.379684 71.020927
39 71.020927 -0.000119 0.000060 0.000334 -0.002323 -106.379684 71.020927
[L_front_hand03_02]
38 71.020905 -0.000060 0.000060 0.000334 -0.002323 -106.379684 71.020905
39 71.020905 -0.000060 0.000060 0.000334 -0.002323 -106.379684 71.020905
[R_forearm]
38 322.776428 -0.000060 0.000030 0.206692 0.040648 -102.099571 322.776428
39 322.776428 -0.000060 0.000030 0.206706 0.040579 -102.061401 322.776428
[R_front_hand]
38 238.847015 -0.006795 2.210259 104.335999 0.791209 -51.436913 238.857239
39 238.847015 -0.006795 2.210259 68.030670 0.792184 -51.438953 238.857239
[R_weapon_bone]
38 155.664093 0.002503 -0.000030 0.003487 0.001180 -90.988930 155.664078
39 155.664093 0.002503 -0.000030 0.003487 0.001180 -90.988930 155.664078
[R_front_hand01_01]
38 87.624611 14.231146 22.918642 -152.138626 -59.214066 58.852116 91.683487
39 87.624611 14.231146 22.918642 -151.740158 -59.085384 58.387054 91.683487
[R_front_hand02_01]
38 89.356956 14.367283 -19.491137 152.268768 57.572704 60.992149 92.579636
39 89.356956 14.367283 -19.491137 151.898102 57.447979 60.552284 92.579636
[R_front_hand03_01]
38 87.286232 -22.307278 -0.143439 0.150175 -0.429916 -74.132271 90.091743
39 87.286232 -22.307278 -0.143439 0.147186 -0.431752 -73.862633 90.091743
[R_front_hand01_02]
38 71.020905 0.000060 0.000119 0.002328 -0.000297 104.535889 71.020905
39 71.020905 0.000060 0.000119 0.002329 -0.000289 104.135132 71.020905
[R_front_hand02_02]
38 71.020844 -0.000030 -0.000119 0.002328 -0.000297 104.535889 71.020836
39 71.020844 -0.000030 -0.000119 0.002329 -0.000289 104.135132 71.020836
[R_front_hand03_02]
38 71.020905 0.000000 0.000030 0.002328 -0.000297 104.535889 71.020905
39 71.020905 0.000000 0.000030 0.002329 -0.000289 104.135132 71.020905
[null_rope01_connect]
38 328.732483 0.000000 -0.000238 -129.060089 -52.462452 164.226486 328.732483
39 328.732483 0.000000 -0.000238 -129.372971 -52.811935 164.639618 328.732483
[Rope1_Seg01]
38 5.891685 -5.119934 -1.660059 59.051857 5.224261 -114.119659 7.980067
39 5.927219 -5.079822 -1.652360 52.662746 4.030797 -117.758705 7.979149
[Rope1_Seg02]
38 139.999863 -0.000179 0.000000 -6.376791 0.931966 -7.887871 139.999863
39 139.999863 -0.000179 0.000000 -5.679677 1.789435 -7.773997 139.999863
[Rope1_Seg03]
38 139.999924 0.000060 -0.000060 -9.751028 5.037852 -22.327980 139.999924
39 139.999924 0.000060 -0.000060 -8.834974 7.252708 -22.249855 139.999924
[Rope1_Seg04]
38 139.999924 -0.000060 -0.000119 -12.247532 19.674271 -58.648117 139.999924
39 139.999924 -0.000060 -0.000119 -13.903255 23.383366 -58.520256 139.999924
[Rope1_Seg05]
38 139.999832 0.000119 -0.000060 5.505801 9.318399 -22.976200 139.999832
39 139.999832 0.000119 -0.000060 4.255793 10.475581 -21.822817 139.999832
[Rope1_Seg06]
38 139.999954 0.000119 -0.000060 14.761658 2.310335 -15.818465 139.999954
39 139.999954 0.000119 -0.000060 14.631639 3.731717 -16.009272 139.999954
[Rope1_Seg07]
38 139.999985 0.000060 0.000000 54.578743 -3.173138 -24.862270 139.999985
39 139.999985 0.000060 0.000000 64.826057 -1.060101 -25.560053 139.999985
[Rope1_Seg09]
38 121.602913 0.000119 -0.000089 -89.793175 -1.359789 0.847147 121.602913
39 121.602913 0.000119 -0.000089 -89.793175 -1.359789 0.847147 121.602913
[L_mid_hand01]
38 103.859421 1.038730 8.195221 116.294914 -23.111715 -31.758038 104.187431
39 103.859421 1.038730 8.195221 116.294914 -23.111713 -31.758034 104.187431
[L_mid_hand02]
38 105.572853 -4.139662 -10.864139 -144.219833 17.447468 -35.360519 106.211075
39 105.572853 -4.139662 -10.864139 -144.219833 17.447468 -35.360519 106.211075
[L_mid_hand03]
38 104.641464 17.579376 -3.913581 -17.830780 17.153103 31.982925 106.179977
39 104.641464 17.579376 -3.913581 -17.830780 17.153103 31.982925 106.179977
[null_rope02_connect]
38 328.732849 0.000179 -0.000119 -80.458717 60.376038 61.175983 328.732849
39 328.732849 0.000179 -0.000119 -80.744911 59.916229 60.998917 328.732849
[Rope2_Seg01]
38 0.000043 0.000190 0.000000 52.978558 12.309349 -25.440260 0.000195
39 0.000043 0.000191 0.000000 49.807106 15.236751 -26.410200 0.000196
[Rope2_Seg02]
38 139.999741 -0.000060 -0.000119 5.275005 4.813358 2.324685 139.999756
39 139.999741 -0.000060 -0.000119 5.417150 4.739454 2.793146 139.999756
[Rope2_Seg03]
38 140.000107 0.000030 0.000000 7.259460 9.114161 3.444803 140.000107
39 140.000107 0.000030 0.000000 7.675434 9.068872 4.296391 140.000107
[Rope2_Seg04]
38 139.999802 0.000000 -0.000060 9.516510 21.932705 5.388487 139.999802
39 139.999802 0.000000 -0.000060 10.463740 22.030062 7.215790 139.999802
[Rope2_Seg05]
38 139.999985 -0.000060 0.000119 1.351197 45.602379 0.376700 139.999985
39 139.999985 -0.000060 0.000119 2.815526 44.494278 3.858408 139.999985
[Rope2_Seg06]
38 139.999893 -0.000030 -0.000119 -5.481766 21.009729 2.731596 139.999893
39 139.999893 -0.000030 -0.000119 -5.244537 20.043434 4.254261 139.999893
[Rope2_Seg07]
38 139.999893 0.000060 -0.000060 -9.753447 10.987316 9.707661 139.999893
39 139.999893 0.000060 -0.000060 -9.036296 10.107410 10.870105 139.999893
[Rope2_Seg09]
38 121.338966 0.000089 -0.000060 33.793236 -1.359788 -0.847141 121.338966
39 121.338966 0.000089 -0.000060 33.793236 -1.359788 -0.847141 121.338966
[R_mid_hand01]
38 104.680779 11.144459 -10.335981 -41.523792 25.424656 28.595957 105.778534
39 104.680779 11.144459 -10.335981 -41.523792 25.424656 28.595957 105.778534
[R_mid_hand02]
38 104.070427 2.443552 8.231699 72.847389 -32.746803 10.013901 104.424065
39 104.070427 2.443552 8.231699 72.847389 -32.746803 10.013901 104.424065
[R_mid_hand03]
38 106.028137 -11.221827 -5.996406 -167.901306 10.259192 -37.009720 106.788818
39 106.028137 -11.221827 -5.996406 -167.901306 10.259192 -37.009720 106.788818
[spine02]
38 129.756927 0.001550 0.000119 -0.245322 -4.052060 -4.355547 129.756927
39 129.756927 0.001550 0.000119 -0.245322 -4.052060 -4.355547 129.756927
[spine03]
38 78.613846 0.087372 -4.898873 0.369659 4.260734 -4.885720 78.766380
39 78.613846 0.087372 -4.898873 0.369659 4.260735 -4.885721 78.766380
[pelvis]
38 169.435242 0.051022 0.000000 -0.010007 -0.191417 -1.897554 169.435257
39 169.435242 0.051022 0.000000 -0.010007 -0.191417 -1.897554 169.435257
[null_rope03_connect]
38 -1.257226 -2.466202 137.391083 -175.137512 -86.468033 -75.321648 137.418976
39 -1.257226 -2.466202 137.391083 -179.479401 -86.298584 -70.988129 137.418976
[null_rope04_connect]
38 -1.259640 -2.480268 -137.844437 -175.137512 -86.468033 -75.321648 137.872513
39 -1.259640 -2.480268 -137.844437 -179.479401 -86.298584 -70.988129 137.872513
[Rope3_Seg01]
38 0.000000 0.000000 0.000000 -33.158066 -67.315582 -12.327688 0.000000
39 0.000000 0.000000 0.000000 -25.811167 -61.806942 -19.792147 0.000000
[Rope3_Seg02]
38 139.999924 -0.000119 0.000060 -0.393322 -2.951244 3.227996 139.999924
39 139.999924 -0.000119 0.000060 -0.692565 -2.881532 3.591642 139.999924
[Rope3_Seg03]
38 139.999924 -0.000119 0.000119 -0.810288 -4.336990 4.695925 139.999924
39 139.999924 -0.000119 0.000119 -1.377861 -4.435235 5.422513 139.999924
[Rope3_Seg04]
38 139.999924 0.000119 0.000000 -1.883488 -6.914982 7.360097 139.999924
39 139.999924 0.000119 0.000000 -3.202358 -7.580100 8.944227 139.999924
[Rope3_Seg05]
38 139.999924 -0.000238 0.000060 -6.509538 -15.805268 16.103813 139.999924
39 139.999924 -0.000238 0.000060 -11.058987 -18.149981 19.967140 139.999924
[Rope3_Seg06]
38 139.999893 -0.000119 -0.000060 -6.521996 -15.245290 13.857319 139.999893
39 139.999893 -0.000119 -0.000060 -10.102053 -17.770046 15.249547 139.999893
[Rope3_Seg07]
38 139.999771 0.000060 -0.000119 0.065320 -0.657249 1.836242 139.999771
39 139.999771 0.000060 -0.000119 -0.908847 -2.543290 2.896382 139.999771
[Rope3_Seg08]
38 139.999985 -0.000060 0.000000 -0.456536 -2.145217 2.538121 139.999985
39 139.999985 -0.000060 0.000000 -1.415592 -3.759429 3.210760 139.999985
[Rope3_Seg09]
38 90.185997 -0.000179 -0.000060 89.793228 -1.359877 -0.847183 90.185997
39 90.185997 -0.000179 -0.000060 89.793228 -1.359877 -0.847183 90.185997
[R_rear_hand01]
38 103.366196 -6.073594 -10.757982 -161.551193 16.666374 -30.088671 104.101845
39 103.366196 -6.073594 -10.757982 -161.551193 16.666374 -30.088671 104.101845
[R_rear_hand02]
38 100.509819 12.039542 -7.992327 -34.280552 19.289745 28.875523 101.543350
39 100.509819 12.039542 -7.992327 -34.280552 19.289745 28.875523 101.543350
[R_rear_hand03]
38 101.539970 5.215704 5.435467 83.366440 -30.933914 7.284830 101.819031
39 101.539970 5.215704 5.435467 83.366440 -30.933914 7.284830 101.819031
[Rope4_Seg01]
38 -0.000029 -0.000057 0.000115 -61.793480 -30.469700 -163.611710 0.000132
39 -0.000028 -0.000057 0.000114 -63.531811 -30.417927 -161.907623 0.000131
[Rope4_Seg02]
38 139.999985 0.000060 0.000119 8.464907 11.059587 -6.326535 139.999985
39 139.999985 0.000060 0.000119 8.365830 11.202570 -6.510765 139.999985
[Rope4_Seg03]
38 139.999924 0.000000 -0.000238 14.708638 12.929407 -10.696085 139.999924
39 139.999924 0.000000 -0.000238 14.866183 13.391184 -11.205761 139.999924
[Rope4_Seg04]
38 139.999985 0.000000 0.000119 15.705484 7.184783 -14.797784 139.999985
39 139.999985 0.000000 0.000119 15.952631 7.536364 -15.508679 139.999985
[Rope4_Seg05]
38 139.999802 -0.000060 -0.000119 12.790922 6.090942 -13.143116 139.999802
39 139.999802 -0.000060 -0.000119 12.543860 5.901090 -13.579428 139.999802
[Rope4_Seg06]
38 139.999924 0.000000 0.000060 16.238602 9.589375 -18.299129 139.999924
39 139.999924 0.000000 0.000060 15.686396 9.243222 -19.154341 139.999924
[Rope4_Seg07]
38 139.999802 0.000000 0.000000 11.839166 3.140311 -18.126413 139.999802
39 139.999802 0.000000 0.000000 11.327763 2.878391 -19.074310 139.999802
[Rope4_Seg08]
38 139.999924 0.000000 0.000119 3.164420 -0.874579 -9.781288 139.999924
39 139.999924 0.000000 0.000119 2.802369 -1.012047 -10.103964 139.999924
[Rope4_Seg09]
38 90.185791 0.000060 0.000060 -135.617828 2.228885 0.850567 90.185791
39 90.185791 0.000060 0.000060 -135.617828 2.228885 0.850567 90.185791
[L_rear_hand01]
38 101.696655 -8.392275 -7.654577 -34.454281 -18.946800 151.655121 102.329041
39 101.696655 -8.392275 -7.654577 -34.454281 -18.946800 151.655121 102.329041
[L_rear_hand02]
38 102.726799 -1.568258 5.773216 83.407906 30.330435 172.796509 102.900848
39 102.726799 -1.568258 5.773216 83.407906 30.330435 172.796509 102.900848
[L_rear_hand03]
38 104.552910 9.721220 -10.420293 -161.379868 -16.473232 -150.512238 105.519653
39 104.552910 9.721220 -10.420293 -161.379868 -16.473232 -150.512238 105.519653
